<?xml version="1.0" encoding="UTF-8"?>
<svg version="1.1" xmlns="http://www.w3.org/2000/svg" width="2048" height="2048">
<path d="M0 0 C675.84 0 1351.68 0 2048 0 C2048 675.84 2048 1351.68 2048 2048 C1372.16 2048 696.32 2048 0 2048 C0 1372.16 0 696.32 0 0 Z " fill="#F0FEFE" transform="translate(0,0)"/>
<path d="M0 0 C1.05629653 0.95512369 2.10969538 1.91346187 3.16015625 2.875 C3.67852051 3.34808594 4.19688477 3.82117188 4.73095703 4.30859375 C30.8359974 28.45841486 44.79798831 63.04515616 49.16015625 97.875 C49.24635223 98.55486969 49.33254822 99.23473938 49.4213562 99.93521118 C50.03962597 105.10755847 50.33180737 110.19917911 50.36328125 115.40625 C50.37029556 116.19144012 50.37730988 116.97663025 50.38453674 117.78561401 C50.40197166 120.31546834 50.4083926 122.84508773 50.41015625 125.375 C50.41116837 126.67839325 50.41116837 126.67839325 50.41220093 128.00811768 C50.39439036 142.48660729 49.61688238 156.58198016 47.16015625 170.875 C46.91072266 172.36749268 46.91072266 172.36749268 46.65625 173.89013672 C34.37184958 245.51501581 -0.31319385 317.1286074 -45.8828125 373.67578125 C-46.65250366 374.6342395 -46.65250366 374.6342395 -47.43774414 375.61206055 C-48.42820017 376.83655238 -49.42818739 378.05341905 -50.43920898 379.26098633 C-53.08002376 382.50440313 -53.83984375 383.53372422 -53.83984375 387.875 C-52.65463016 389.64465383 -52.65463016 389.64465383 -50.9375 391.24731445 C-49.98520508 392.20399773 -49.98520508 392.20399773 -49.01367188 393.18000793 C-47.96856445 394.19885323 -47.96856445 394.19885323 -46.90234375 395.23828125 C-46.18884766 395.94848923 -45.47535156 396.6586972 -44.74023438 397.39042664 C-42.44928326 399.66560188 -40.14457096 401.92628997 -37.83984375 404.1875 C-36.31684854 405.69900396 -34.79470288 407.21136444 -33.2734375 408.72460938 C-31.79633453 410.18826901 -30.3184923 411.65118304 -28.83984375 413.11328125 C-27.8190271 414.1230175 -27.8190271 414.1230175 -26.77758789 415.15315247 C-22.84479757 419.00946986 -18.81837285 422.7043384 -14.62902832 426.28092957 C-11.64360777 428.94078406 -9.01192469 431.90642023 -6.33984375 434.875 C-1.52930278 440.12174003 3.42536335 445.11477535 8.66015625 449.9375 C14.94050288 455.73811423 21.08984729 461.65983571 27.15136719 467.68795776 C28.55051414 469.07815929 29.95485766 470.46312476 31.359375 471.84790039 C36.57538151 477.05580455 41.32314522 482.44202677 45.92944336 488.19238281 C49.59608044 492.60181789 53.63934108 496.60460696 57.72265625 500.625 C58.52123047 501.42292969 59.31980469 502.22085938 60.14257812 503.04296875 C64.4314334 507.30036543 68.79924972 511.4073058 73.39404297 515.33325195 C77.81524445 519.1927885 81.79609374 523.41117434 85.59765625 527.875 C87.81892365 530.44776466 90.06434064 532.74535334 92.66015625 534.9375 C101.55937638 542.49574176 109.99399374 551.04220857 117.53125 559.95703125 C119.67014492 562.47549025 121.88413181 564.92199069 124.09765625 567.375 C124.86980469 568.2309375 125.64195312 569.086875 126.4375 569.96875 C127.00597656 570.5978125 127.57445312 571.226875 128.16015625 571.875 C132.31922779 570.33112956 134.52717252 567.3189478 137.13671875 563.90625 C137.6125943 563.29124634 138.08846985 562.67624268 138.57876587 562.04260254 C144.6352825 554.09668137 150.08341945 545.74118859 155.53515625 537.375 C156.08197052 536.54039246 156.62878479 535.70578491 157.19216919 534.84588623 C165.08984844 522.78947686 172.67066264 510.61584576 179.85302734 498.11816406 C181.96622664 494.49170251 184.1793183 490.9299565 186.41015625 487.375 C186.8177417 486.72402344 187.22532715 486.07304688 187.64526367 485.40234375 C189.48904568 482.47325737 191.36180008 479.5732756 193.28515625 476.6953125 C199.83428457 466.84754234 205.30681388 456.47837087 210.859375 446.04296875 C213.3441482 441.3774367 215.88969232 436.76357863 218.53515625 432.1875 C224.44423568 421.94425569 229.94758397 411.68000426 234.58178711 400.79443359 C236.49738019 396.31396795 238.57324171 391.96761408 240.78515625 387.625 C243.9010077 381.48351106 246.5940856 375.26184462 249.16015625 368.875 C249.62035156 367.80636719 250.08054687 366.73773437 250.5546875 365.63671875 C254.14393215 357.12291681 256.82932176 348.49723581 259.34326172 339.60961914 C261.25506534 332.87988345 263.31768881 326.22039181 265.50439453 319.57495117 C275.60216134 288.966779 275.60216134 288.966779 280.04150391 257.16748047 C280.15949886 254.88770134 280.35131864 252.62192251 280.546875 250.34765625 C281.25394884 239.40229603 278.51090202 231.12813669 274.0078125 221.203125 C269.67705321 211.4700998 269.04246296 196.44480086 272.59765625 186.3125 C277.49096321 176.50877662 285.30198588 170.25461339 295.16015625 165.875 C302.37951147 163.46854826 312.94460534 163.75945842 320.0390625 166.65625 C329.51313206 172.09991428 333.66182832 178.82028198 337.16015625 188.875 C338.19731281 191.35619763 339.238317 193.83540859 340.28515625 196.3125 C345.03323543 207.59239621 346.69893348 218.73885962 346.59765625 230.9375 C346.59080811 232.23171875 346.58395996 233.5259375 346.5769043 234.859375 C346.32470459 254.74179989 342.67712023 274.15438267 337.98632812 293.41650391 C336.97517131 297.64937843 336.01167515 301.89219971 335.05078125 306.13671875 C329.66090881 329.90564873 323.78653812 353.28309776 316.21484375 376.46484375 C314.83638263 380.70959797 313.53288662 384.96667702 312.29296875 389.25390625 C307.81605836 404.63641122 302.02210681 419.08930672 295.53955078 433.73046875 C290.66603427 444.84036127 286.40001878 456.16589148 282.29907227 467.57983398 C277.0268594 482.23480251 271.11706919 496.45012223 264.63330078 510.62109375 C262.69423002 514.90414564 260.83044565 519.21812091 258.96459961 523.53344727 C251.668716 540.36779631 243.44815081 556.65036361 234.79321289 572.8203125 C231.77752783 578.52400819 229.11949211 584.34024424 226.53515625 590.25 C220.61130901 603.68217298 212.70835876 615.14727273 203.78955078 626.75292969 C202.11285178 628.93660779 200.44611912 631.12760474 198.78125 633.3203125 C196.05098642 636.91332517 193.30281063 640.49208494 190.546875 644.06542969 C189.40416788 645.556582 188.2796333 647.06164225 187.16015625 648.5703125 C178.28864059 660.25378178 167.33152577 671.12688567 155.34765625 679.59375 C152.13935608 681.88988639 149.06707907 684.30768575 145.98413086 686.76733398 C128.35890911 700.75829323 110.57628578 711.58836233 89.953125 720.63525391 C82.7439319 723.83527861 75.75532128 727.47973179 68.8046875 731.203125 C59.30749338 736.28290475 49.74947923 740.99949958 39.890625 745.3359375 C35.57967636 747.23223115 31.29768571 749.18679557 27.0234375 751.1640625 C8.04506961 759.91909182 -11.11961145 767.64285305 -30.8203125 774.65234375 C-42.0442313 778.66520946 -52.94652561 783.30028087 -63.82202148 788.16943359 C-72.36323588 791.96639725 -80.93836305 795.03533493 -89.83984375 797.875 C-91.44282748 798.41244616 -93.04464696 798.95339642 -94.64453125 799.5 C-102.60395153 802.19359298 -110.58434492 804.72861572 -118.66015625 807.05078125 C-123.22442168 808.37179314 -127.7203848 809.8286749 -132.21484375 811.375 C-146.07517622 816.03393528 -160.15590488 819.22748728 -174.50268555 821.99780273 C-181.07268251 823.2788844 -187.55172147 824.74569416 -194.02734375 826.4375 C-203.72479671 828.95027572 -213.48974189 830.84065211 -223.37255859 832.46826172 C-225.50599525 832.81996422 -227.63616675 833.19136734 -229.765625 833.56640625 C-238.74089369 834.9449921 -247.64613507 835.07748727 -256.71484375 835.125 C-257.95177979 835.1343457 -259.18871582 835.14369141 -260.46313477 835.15332031 C-278.36015349 835.09053646 -300.76158466 829.54965388 -314.83984375 817.875 C-321.74339718 810.25375043 -324.43132428 803.17091756 -324.12109375 792.89453125 C-323.18523186 782.84701405 -318.94276041 774.37457476 -311.46484375 767.5625 C-303.85286279 761.48641763 -296.6806366 759.69532933 -287.15234375 759.6875 C-286.38728516 759.67525391 -285.62222656 759.66300781 -284.83398438 759.65039062 C-276.75309982 759.62996716 -269.87353612 761.25726582 -262.51513672 764.54150391 C-252.61082095 768.90562778 -244.52355483 769.88632217 -233.83984375 768.875 C-232.94523437 768.79958984 -232.050625 768.72417969 -231.12890625 768.64648438 C-210.0875183 766.77898992 -190.47217536 761.2853687 -170.55859375 754.46484375 C-165.58474117 752.76894218 -160.56136336 751.31006924 -155.5 749.8984375 C-150.89501334 748.61081049 -146.30243104 747.28568368 -141.71484375 745.9375 C-140.91554443 745.70861084 -140.11624512 745.47972168 -139.29272461 745.24389648 C-109.39254211 736.40746873 -78.91122996 720.51844563 -51.91455078 705.06152344 C-49.22304029 703.52225055 -46.52036449 702.00330136 -43.81665039 700.4855957 C-42.50097418 699.74643168 -41.18635205 699.00538827 -39.87280273 698.26245117 C-36.4229505 696.31294193 -32.96042698 694.39265118 -29.47265625 692.51171875 C-20.8966414 687.86556021 -12.71668221 682.9033457 -4.65844727 677.40698242 C0.63524217 673.82152607 6.04091983 670.53556103 11.59765625 667.375 C26.17050084 659.0571394 40.17660974 649.94489191 54.09289551 640.57855225 C55.45016508 639.66525048 56.80845125 638.7534573 58.16784668 637.84332275 C65.80572093 632.72242679 73.10813261 627.48704165 80.0859375 621.48120117 C82.16015625 619.875 82.16015625 619.875 84.16015625 619.875 C81.56345378 614.65140084 77.51704422 611.19637087 73.28515625 607.3125 C72.5271875 606.60722168 71.76921875 605.90194336 70.98828125 605.17529297 C67.49909397 601.93355015 63.98942463 598.71491222 60.46484375 595.51171875 C59.90265137 594.99875244 59.34045898 594.48578613 58.76123047 593.95727539 C57.27431364 592.60390446 55.78003147 591.25863776 54.28515625 589.9140625 C51.73647553 587.52182681 49.43193633 584.96456171 47.11743164 582.34594727 C42.1599132 576.8159236 36.97514126 571.54551554 31.71875 566.30078125 C30.74172201 565.32307686 29.76484226 564.34522431 28.7881012 563.36723328 C26.75854334 561.33621562 24.72722558 559.30698012 22.69458008 557.27905273 C20.11049725 554.70068149 17.53095282 552.1178237 14.95271206 549.53361225 C12.94261969 547.51988051 10.93011989 545.5085682 8.9169178 543.49794579 C7.50881548 542.09081897 6.10269817 540.68170666 4.69664001 539.27253723 C-0.32514094 534.26892432 -5.45342566 529.48188608 -10.83984375 524.875 C-27.01280793 510.46359393 -27.01280793 510.46359393 -33.65698242 502.55834961 C-39.57981158 495.76154046 -46.07644113 489.49492183 -52.453125 483.12890625 C-53.8733709 481.70798589 -55.2934684 480.28691718 -56.71342468 478.8657074 C-59.6745977 475.90306698 -62.63755482 472.94222585 -65.60180664 469.98266602 C-69.40619487 466.1840059 -73.20603389 462.38083163 -77.00457478 458.57632542 C-79.92889764 455.64839769 -82.85558721 452.72284507 -85.78301048 449.7980175 C-87.18602133 448.39567451 -88.58828758 446.99258615 -89.98980141 445.58874702 C-91.94042252 443.63559728 -93.89420114 441.68566297 -95.84887695 439.73657227 C-96.42913635 439.15428864 -97.00939575 438.572005 -97.60723877 437.97207642 C-100.45308858 435.06630575 -100.45308858 435.06630575 -103.83984375 432.875 C-103.83984375 433.535 -103.83984375 434.195 -103.83984375 434.875 C-105.26660156 436.16503906 -105.26660156 436.16503906 -107.29296875 437.640625 C-108.42412109 438.47037842 -108.42412109 438.47037842 -109.578125 439.31689453 C-110.82142578 440.21190674 -110.82142578 440.21190674 -112.08984375 441.125 C-112.94449219 441.74616699 -113.79914063 442.36733398 -114.6796875 443.00732422 C-117.39312692 444.97258719 -120.1150508 446.92551499 -122.83984375 448.875 C-123.68353516 449.48053711 -124.52722656 450.08607422 -125.39648438 450.70996094 C-199.93434726 504.05568633 -286.28014646 541.91596068 -397.27734375 537.375 C-415.98756251 534.01466292 -434.29189743 528.27681143 -450.83984375 518.875 C-452.48146484 517.9778125 -452.48146484 517.9778125 -454.15625 517.0625 C-474.83132524 505.4699672 -491.50617849 487.94122423 -503.83984375 467.875 C-504.52949219 466.7715625 -505.21914063 465.668125 -505.9296875 464.53125 C-516.75098829 445.84575635 -522.18116094 424.15487237 -524.83984375 402.875 C-524.94079346 402.07924561 -525.04174316 401.28349121 -525.14575195 400.46362305 C-527.08284611 383.45453189 -526.61932277 365.76215108 -523.83984375 348.875 C-523.71625488 348.0794873 -523.59266602 347.28397461 -523.46533203 346.46435547 C-519.47456764 321.08309395 -513.07220982 295.48035935 -502.83984375 271.875 C-502.16730993 270.1898297 -501.50041508 268.50239533 -500.83984375 266.8125 C-498.68532447 261.41342797 -496.29296708 256.14420879 -493.83984375 250.875 C-493.52917969 250.19791992 -493.21851563 249.52083984 -492.8984375 248.82324219 C-487.40287556 236.85524561 -481.44130531 225.26986417 -474.83984375 213.875 C-474.38770508 213.09044434 -473.93556641 212.30588867 -473.46972656 211.49755859 C-459.66349016 187.65610025 -443.95714492 164.47501893 -426.0625 143.49609375 C-423.94566008 140.99978516 -421.91832106 138.45300735 -419.90234375 135.875 C-416.03858454 131.0101048 -411.8818569 126.47133506 -407.6484375 121.9296875 C-405.64227395 119.77436681 -403.71893782 117.56465148 -401.80859375 115.32421875 C-397.00969488 109.81773548 -391.81456615 104.70037779 -386.64282227 99.54760742 C-384.90590775 97.816053 -383.17440486 96.07921641 -381.44335938 94.34179688 C-375.74430734 88.63901654 -370.00359652 83.07984957 -363.83984375 77.875 C-362.75624373 76.92626796 -361.67416575 75.9757942 -360.59375 75.0234375 C-352.40289805 67.88047474 -343.91209095 61.21334604 -335.22436523 54.68725586 C-333.44783778 53.33708044 -331.68363081 51.9706642 -329.92602539 50.59594727 C-321.9824712 44.38344791 -313.81098654 38.6265632 -305.40234375 33.0625 C-304.75099457 32.63024109 -304.09964539 32.19798218 -303.42855835 31.75262451 C-273.93674652 12.20926841 -242.76818748 -5.57338169 -209.140625 -16.95703125 C-206.47427809 -17.90050785 -203.90088549 -18.92808961 -201.29296875 -20.015625 C-195.08794209 -22.51378279 -188.72428952 -24.30176681 -182.27734375 -26.0625 C-180.37891724 -26.58191162 -180.37891724 -26.58191162 -178.44213867 -27.11181641 C-118.61480985 -43.26473151 -48.90226476 -43.29615869 0 0 Z " fill="#242A30" transform="translate(1373.83984375,885.125)"/>
<path d="M0 0 C2.55462364 2.2426729 5.03088148 4.54568445 7.4921875 6.890625 C8.06227539 7.43348145 8.63236328 7.97633789 9.21972656 8.53564453 C46.7446985 44.50603843 69.08028952 94.66442825 78.3046875 145.328125 C78.5119043 146.46483643 78.71912109 147.60154785 78.93261719 148.77270508 C81.3091455 162.57801015 81.76029693 176.41468984 81.8046875 190.390625 C81.80730591 191.18933014 81.80992432 191.98803528 81.81262207 192.8109436 C81.81816764 208.77485805 80.26518234 224.1514034 77.4921875 239.890625 C77.34265625 240.77186035 77.193125 241.6530957 77.0390625 242.56103516 C70.17318097 281.80940192 48.32169411 321.32154643 16.1171875 345.265625 C-8.87636606 362.28001592 -38.27348246 370.85827911 -68.3828125 365.578125 C-71.10098816 365.05727883 -73.80544494 364.48770774 -76.5078125 363.890625 C-77.65765625 363.63925781 -78.8075 363.38789062 -79.9921875 363.12890625 C-85.43500269 361.8494385 -90.40627971 360.1789888 -95.5078125 357.890625 C-96.46059082 357.47151855 -96.46059082 357.47151855 -97.43261719 357.04394531 C-126.49895235 344.16211158 -152.17229485 322.93804483 -170.5078125 296.890625 C-171.1258374 296.01519043 -171.1258374 296.01519043 -171.75634766 295.12207031 C-181.74374359 280.84120683 -190.00932161 265.60357989 -197.5078125 249.890625 C-198.09453735 248.68635864 -198.09453735 248.68635864 -198.69311523 247.45776367 C-202.17423037 240.10754742 -204.70400945 232.60114044 -207.0703125 224.828125 C-207.26513214 224.1949939 -207.45995178 223.56186279 -207.66067505 222.9095459 C-210.80966546 212.6609225 -213.42055495 202.40261642 -215.5078125 191.890625 C-215.8391753 190.48551928 -216.17124483 189.08058009 -216.50390625 187.67578125 C-227.31286096 139.0793819 -220.63448429 85.5386795 -199.5078125 40.890625 C-199.06824219 39.92253906 -198.62867188 38.95445312 -198.17578125 37.95703125 C-191.56539445 23.91710309 -182.29782608 11.93303656 -171.5078125 0.890625 C-170.70859375 0.02953125 -169.909375 -0.8315625 -169.0859375 -1.71875 C-154.67339773 -16.88488662 -134.1470496 -29.00352321 -113.5078125 -33.109375 C-112.66863281 -33.295 -111.82945312 -33.480625 -110.96484375 -33.671875 C-70.33792288 -41.40011358 -30.79744919 -25.90439651 0 0 Z " fill="#242A30" transform="translate(454.5078125,979.109375)"/>
<path d="M0 0 C3.5371957 3.12446813 6.97418907 6.34409708 10.38623047 9.60449219 C11.27310547 10.45011719 12.15998047 11.29574219 13.07373047 12.16699219 C35.75104016 34.29119676 55.24509976 67.13619936 56.31445312 99.45800781 C56.36554047 100.9857626 56.4290389 102.51312401 56.50097656 104.04003906 C57.77438406 132.77498959 49.08326132 161.49370191 29.63623047 183.16699219 C28.22039754 184.64695692 26.80382883 186.12621841 25.38623047 187.60449219 C24.42020646 188.78574434 23.46117757 189.97277297 22.51123047 191.16699219 C15.05136872 199.89400854 4.90769468 206.33793241 -4.61376953 212.60449219 C-5.48775391 213.1884375 -6.36173828 213.77238281 -7.26220703 214.37402344 C-21.18541559 223.09134024 -37.71578925 229.55010777 -53.61376953 233.60449219 C-54.23703125 233.7661084 -54.86029297 233.92772461 -55.50244141 234.09423828 C-63.58123741 236.16826156 -71.70410183 237.8908543 -79.92626953 239.29199219 C-80.96400513 239.47097046 -80.96400513 239.47097046 -82.02270508 239.65356445 C-93.88805771 241.5802737 -105.80741232 241.84378915 -117.80126953 241.85449219 C-118.98488571 241.85600281 -118.98488571 241.85600281 -120.19241333 241.85754395 C-134.18425244 241.84554393 -147.78907795 240.84940106 -161.61376953 238.60449219 C-162.47292969 238.4759082 -163.33208984 238.34732422 -164.21728516 238.21484375 C-175.79801233 236.46302474 -186.96732624 233.50766035 -198.17626953 230.16699219 C-200.04931763 229.60987549 -200.04931763 229.60987549 -201.96020508 229.04150391 C-229.81551121 220.50696982 -256.76293826 206.70315943 -279.61376953 188.60449219 C-280.42587891 187.98445312 -281.23798828 187.36441406 -282.07470703 186.72558594 C-293.51185343 177.86087215 -303.80040405 168.09248047 -312.61376953 156.60449219 C-313.41169922 155.63382813 -314.20962891 154.66316406 -315.03173828 153.66308594 C-324.96015521 141.48067093 -332.76316784 127.50317568 -337.90185547 112.640625 C-338.39537461 111.22911964 -338.91063111 109.82509943 -339.44287109 108.42773438 C-345.63618543 91.98438008 -345.89452244 74.97629508 -344.61376953 57.60449219 C-344.11876953 56.61449219 -344.11876953 56.61449219 -343.61376953 55.60449219 C-343.48244396 54.00232023 -343.38353944 52.39743077 -343.30126953 50.79199219 C-340.95533725 24.22775904 -322.17800629 -0.91319546 -302.66845703 -17.93457031 C-287.4053764 -30.23091404 -271.0087553 -39.88099717 -252.60375977 -46.65991211 C-251.12164815 -47.20777155 -249.64546828 -47.77173047 -248.17260742 -48.34399414 C-236.66814994 -52.71907501 -224.65905677 -55.00675043 -212.61376953 -57.39550781 C-211.68129395 -57.58064941 -210.74881836 -57.76579102 -209.78808594 -57.95654297 C-138.10245629 -71.4997124 -54.82350282 -47.4086448 0 0 Z " fill="#242A30" transform="translate(1288.61376953125,294.3955078125)"/>
</svg>
