<svg xmlns="http://www.w3.org/2000/svg" height="24" viewBox="0 -960 960 960" width="24" fill="#FFFFFF">
  <path d="M180-475q-42 0-71-29t-29-71q0-42 29-70.5t71-28.5q42 0 70.5 28.5T279-575q0 42-28.5 71T180-475Zm180-160q-42 0-71-29t-29-71q0-42 29-70.5t71-28.5q42 0 70.5 28.5T459-735q0 42-28.5 71T360-635Zm240 0q-42 0-71-29t-29-71q0-42 29-70.5t71-28.5q42 0 70.5 28.5T699-735q0 42-28.5 71T600-635Zm180 160q-42 0-70.5-29T681-575q0-42 28.5-70.5T780-674q42 0 71 28.5t29 70.5q0 42-29 71t-71 29ZM266-75q-45 0-75.5-34.5T160-191q0-52 35.5-91t70.5-77q29-31 50-67.5t50-68.5q22-26 51-43t63-17q34 0 63 17t51 43q29 32 50 68.5t50 67.5q35 38 70.5 77t35.5 91q0 47-30.5 81.5T694-75q-54 0-107-9t-107-9q-54 0-107 9t-107 9Z"/>
</svg>
